<svg
        xmlns:dc="http://purl.org/dc/elements/1.1/"
        xmlns:cc="http://creativecommons.org/ns#"
        xmlns:rdf="http://www.w3.org/1999/02/22-rdf-syntax-ns#"
        xmlns:svg="http://www.w3.org/2000/svg"
        xmlns="http://www.w3.org/2000/svg"
        version="1.1"
        id="svg2"
        viewBox="0 0 400 300.00001">
    <defs
            id="defs4">
        <style
                id="style4714">.cls-1{fill:#0096e6;}</style>
    </defs>
    <metadata
            id="metadata7">
        <rdf:RDF>
            <cc:Work
                    rdf:about="">
                <dc:format>image/svg+xml</dc:format>
                <dc:type
                        rdf:resource="http://purl.org/dc/dcmitype/StillImage" />
                <dc:title></dc:title>
            </cc:Work>
        </rdf:RDF>
    </metadata>
    <g
            transform="translate(0,-752.36216)"
            id="layer1">
        <g
                id="g4894" class="fragment" data-fragment-index="8"
                transform="translate(-146.55232,628.84047)">
            <rect
                    y="156.01947"
                    x="445.89789"
                    height="46.167904"
                    width="72.779968"
                    id="rect4896"
                    style="opacity:1;fill:#4e9a06;fill-opacity:1;stroke:#000000;stroke-width:1;stroke-linecap:butt;stroke-linejoin:round;stroke-miterlimit:4;stroke-dasharray:none;stroke-dashoffset:0;stroke-opacity:1" />
            <text
         xml:space="preserve"
         style="font-style:normal;font-weight:normal;font-size:17.35793114px;line-height:88.99999857%;font-family:sans-serif;letter-spacing:0px;word-spacing:0px;fill:#000000;fill-opacity:1;stroke:none;stroke-width:1px;stroke-linecap:butt;stroke-linejoin:miter;stroke-opacity:1"
         x="481.90302"
         y="177.07254"
         id="text4898"><tspan
           id="tspan4900"
           x="481.90302"
           y="177.07254"
           style="font-style:normal;font-variant:normal;font-weight:normal;font-stretch:normal;line-height:88.99999857%;font-family:'Source Sans Pro';-inkscape-font-specification:'Source Sans Pro';text-align:center;text-anchor:middle">Stun</tspan><tspan
           x="481.90302"
           y="192.5211"
           style="font-style:normal;font-variant:normal;font-weight:normal;font-stretch:normal;line-height:88.99999857%;font-family:'Source Sans Pro';-inkscape-font-specification:'Source Sans Pro';text-align:center;text-anchor:middle"
           id="tspan4902">Server</tspan></text>
        </g>
        <g
                transform="translate(226.14612,765.52089)"
                id="g4904" class="fragment" data-fragment-index="7">
            <g
                    id="g4906"
                    transform="matrix(0.27244499,-0.96217136,0.96217136,0.27244499,-203.75401,433.93997)">
                <path
                        id="path4908"
                        d="m 355.63395,215.29181 c 0,0 37.7291,-27.50926 78.25106,-34.4429"
                        style="fill:none;fill-rule:evenodd;stroke:#ffffff;stroke-width:1px;stroke-linecap:butt;stroke-linejoin:miter;stroke-opacity:1" />
                <path
                        id="path4910"
                        d="m 359.64825,207.14051 1.16169,1.62663 0.74989,-0.0723 4.83729,-0.46802 -2.01307,4.42342 -0.31223,0.68587 1.22382,1.71436 2.0132,-4.4225 2.01306,-4.42341 -4.83728,0.46803 -4.83637,0.46792 z"
                        style="opacity:1;fill:#ffffff;fill-opacity:1;stroke:none;stroke-width:1;stroke-linecap:butt;stroke-linejoin:round;stroke-miterlimit:4;stroke-dasharray:none;stroke-dashoffset:0;stroke-opacity:1" />
            </g>
            <g
                    transform="translate(-3.4213766,-11.689704)"
                    id="g4912">
                <circle
                        style="opacity:1;fill:#fcaf3e;fill-opacity:1;stroke:#ce5c00;stroke-width:1;stroke-linecap:butt;stroke-linejoin:round;stroke-miterlimit:4;stroke-dasharray:none;stroke-dashoffset:0;stroke-opacity:1"
                        id="circle4914"
                        cx="92.947403"
                        cy="116.75825"
                        r="8.9098358" />
                <text
           xml:space="preserve"
           style="font-style:normal;font-weight:normal;font-size:17.35793114px;line-height:88.99999857%;font-family:sans-serif;letter-spacing:0px;word-spacing:0px;fill:#000000;fill-opacity:1;stroke:none;stroke-width:1px;stroke-linecap:butt;stroke-linejoin:miter;stroke-opacity:1"
           x="93.132774"
           y="122.56803"
           id="text4916"><tspan
             x="93.132774"
             y="122.56803"
             style="font-style:normal;font-variant:normal;font-weight:normal;font-stretch:normal;line-height:88.99999857%;font-family:'Source Sans Pro';-inkscape-font-specification:'Source Sans Pro';text-align:center;text-anchor:middle"
             id="tspan4918">?</tspan></text>
            </g>
        </g>
        <g
                transform="translate(226.14612,765.52089)"
                id="g4920" class="fragment" data-fragment-index="9">
            <g
                    transform="matrix(0.27244499,-0.96217136,0.96217136,0.27244499,-170.6807,433.93997)"
                    id="g4922">
                <path
                        style="fill:none;fill-rule:evenodd;stroke:#ffffff;stroke-width:1px;stroke-linecap:butt;stroke-linejoin:miter;stroke-opacity:1"
                        d="m 355.63395,215.29181 c 0,0 37.7291,-27.50926 78.25106,-34.4429"
                        id="path4924" />
                <path
                        style="opacity:1;fill:#ffffff;fill-opacity:1;stroke:none;stroke-width:1;stroke-linecap:butt;stroke-linejoin:round;stroke-miterlimit:4;stroke-dasharray:none;stroke-dashoffset:0;stroke-opacity:1"
                        d="m 376.68225,208.05595 -0.94035,-1.76386 -0.75293,-0.0258 -4.85708,-0.16485 2.57108,-4.12416 0.39875,-0.63945 -0.99055,-1.85892 -2.57109,4.12322 -2.57106,4.12414 4.85707,0.16485 4.85616,0.16483 z"
                        id="path4926" />
            </g>
            <g
                    transform="matrix(1.9038461,0,0,1.9038461,-47.871859,-121.85431)"
                    id="g4928">
                <circle
                        r="8.9486399"
                        cy="116.5994"
                        cx="89.929413"
                        id="circle4930"
                        style="opacity:1;fill:#4e9a06;fill-opacity:1;stroke:#000000;stroke-width:0.52525252;stroke-linecap:butt;stroke-linejoin:round;stroke-miterlimit:4;stroke-dasharray:none;stroke-dashoffset:0;stroke-opacity:1" />
            </g>
            <g
                    transform="translate(-50.607863,10.976917)"
                    id="g4932">
                <path
                        id="path4934"
                        d="m 184.91406,85.673828 -19.18554,14.261719 0.59765,0.802733 18.91797,-14.064452 -0.16406,0 0,-1 -0.16602,0 z"
                        style="color:#ffffff;font-style:normal;font-variant:normal;font-weight:normal;font-stretch:normal;font-size:medium;line-height:normal;font-family:sans-serif;text-indent:0;text-align:start;text-decoration:none;text-decoration-line:none;text-decoration-style:solid;text-decoration-color:#ffffff;letter-spacing:normal;word-spacing:normal;text-transform:none;direction:ltr;block-progression:tb;writing-mode:lr-tb;baseline-shift:baseline;text-anchor:start;white-space:normal;clip-rule:nonzero;display:inline;overflow:visible;visibility:visible;opacity:1;isolation:auto;mix-blend-mode:normal;color-interpolation:sRGB;color-interpolation-filters:linearRGB;solid-color:#ffffff;solid-opacity:1;fill:#000000;fill-opacity:1;fill-rule:evenodd;stroke:none;stroke-width:1px;stroke-linecap:butt;stroke-linejoin:miter;stroke-miterlimit:4;stroke-dasharray:none;stroke-dashoffset:0;stroke-opacity:1;color-rendering:auto;image-rendering:auto;shape-rendering:auto;text-rendering:auto;enable-background:accumulate" />
                <path
                        id="path4936"
                        d="m 160.92578,88.685547 -0.38086,0.923828 24.5957,10.181641 0.38282,-0.923828 -24.59766,-10.181641 z"
                        style="color:#ffffff;font-style:normal;font-variant:normal;font-weight:normal;font-stretch:normal;font-size:medium;line-height:normal;font-family:sans-serif;text-indent:0;text-align:start;text-decoration:none;text-decoration-line:none;text-decoration-style:solid;text-decoration-color:#ffffff;letter-spacing:normal;word-spacing:normal;text-transform:none;direction:ltr;block-progression:tb;writing-mode:lr-tb;baseline-shift:baseline;text-anchor:start;white-space:normal;clip-rule:nonzero;display:inline;overflow:visible;visibility:visible;opacity:1;isolation:auto;mix-blend-mode:normal;color-interpolation:sRGB;color-interpolation-filters:linearRGB;solid-color:#ffffff;solid-opacity:1;fill:#000000;fill-opacity:1;fill-rule:evenodd;stroke:none;stroke-width:1px;stroke-linecap:butt;stroke-linejoin:miter;stroke-miterlimit:4;stroke-dasharray:none;stroke-dashoffset:0;stroke-opacity:1;color-rendering:auto;image-rendering:auto;shape-rendering:auto;text-rendering:auto;enable-background:accumulate" />
                <path
                        id="path4938"
                        d="m 173.916,74.976973 a 6.4208005,6.4514925 0 0 0 -6.42016,6.452432 6.4208005,6.4514925 0 0 0 0.6849,2.897912 l -0.0455,0 2.88412,5.001896 2.8857,5.001907 2.88413,-5.001907 2.88413,-5.001896 -0.0283,0 a 6.4208005,6.4514925 0 0 0 0.69275,-2.897912 6.4208005,6.4514925 0 0 0 -6.42174,-6.452432 z m 0,3.341438 a 3.0957431,3.110541 0 0 1 3.0962,3.110994 3.0957431,3.110541 0 0 1 -3.0962,3.110994 3.0957431,3.110541 0 0 1 -3.09619,-3.110994 3.0957431,3.110541 0 0 1 3.09619,-3.110994 z"
                        style="opacity:1;fill:#ffffff;fill-opacity:1;stroke:#ffffff;stroke-width:1;stroke-linecap:butt;stroke-linejoin:round;stroke-miterlimit:4;stroke-dasharray:none;stroke-dashoffset:0;stroke-opacity:1" />
            </g>
        </g>
        <g
                transform="translate(-306.30236,718.13335)"
                id="g4195" class="fragment" data-fragment-index="5">
            <rect
                    style="opacity:1;fill:#4e9a06;fill-opacity:1;stroke:#000000;stroke-width:1;stroke-linecap:butt;stroke-linejoin:round;stroke-miterlimit:4;stroke-dasharray:none;stroke-dashoffset:0;stroke-opacity:1"
                    id="rect4183"
                    width="72.779968"
                    height="26.813675"
                    x="445.89789"
                    y="156.01947" />
            <text
         id="text4167-4"
         y="175.60573"
         x="463.83112"
         style="font-style:normal;font-weight:normal;font-size:17.35793114px;line-height:125%;font-family:sans-serif;letter-spacing:0px;word-spacing:0px;fill:#000000;fill-opacity:1;stroke:none;stroke-width:1px;stroke-linecap:butt;stroke-linejoin:miter;stroke-opacity:1"
         xml:space="preserve"><tspan
           style="font-style:normal;font-variant:normal;font-weight:normal;font-stretch:normal;font-family:'Source Sans Pro';-inkscape-font-specification:'Source Sans Pro'"
           y="175.60573"
           x="463.83112"
           id="tspan4169-8">Offer</tspan></text>
        </g>
        <g
                transform="translate(-267.5939,701.1984)"
                id="g4241" class="fragment" data-fragment-index="5">
            <path
                    style="fill:none;fill-rule:evenodd;stroke:#ffffff;stroke-width:1px;stroke-linecap:butt;stroke-linejoin:miter;stroke-opacity:1"
                    d="m 355.63395,215.29181 c 0,0 12.74549,-12.13791 52.10228,-23.18649"
                    id="path4181" />
            <path
                    style="opacity:1;fill:#ffffff;fill-opacity:1;stroke:none;stroke-width:1;stroke-linecap:butt;stroke-linejoin:round;stroke-miterlimit:4;stroke-dasharray:none;stroke-dashoffset:0;stroke-opacity:1"
                    d="m 372.438,199.808 0.86238,1.80326 0.75108,0.0587 4.84524,0.37692 -2.74883,4.00787 -0.42631,0.62143 0.90838,1.90042 2.74879,-4.00694 2.74882,-4.00787 -4.84524,-0.37691 -4.84431,-0.37687 z"
                    id="path4219" />
        </g>
        <g
                transform="translate(-267.5939,701.1984)"
                id="g4237" class="fragment" data-fragment-index="6">
            <path
                    style="fill:none;fill-rule:evenodd;stroke:#ffffff;stroke-width:1px;stroke-linecap:butt;stroke-linejoin:miter;stroke-opacity:1"
                    d="m 480.22681,185.45403 c 0,0 66.93337,0.40322 108.06111,30.6442"
                    id="path4217" />
            <path
                    id="path4235"
                    d="m 533.56035,187.8049 -0.38205,1.96201 0.56817,0.49472 3.66637,3.19001 -4.59579,1.58047 -0.71266,0.245 -0.40301,2.06744 4.5952,-1.57974 4.59577,-1.58047 -3.66636,-3.19001 -3.66565,-3.18942 z"
                    style="opacity:1;fill:#ffffff;fill-opacity:1;stroke:none;stroke-width:1;stroke-linecap:butt;stroke-linejoin:round;stroke-miterlimit:4;stroke-dasharray:none;stroke-dashoffset:0;stroke-opacity:1" />
        </g>
        <g
                id="g4245" class="fragment" data-fragment-index="10"
                transform="matrix(-1,0,0,-1,714.98781,1184.9089)">
            <rect
                    transform="scale(-1,-1)"
                    y="-189.28456"
                    x="-518.67786"
                    height="26.813675"
                    width="72.779968"
                    id="rect4247"
                    style="opacity:1;fill:#fce94f;fill-opacity:1;stroke:#000000;stroke-width:1;stroke-linecap:butt;stroke-linejoin:round;stroke-miterlimit:4;stroke-dasharray:none;stroke-dashoffset:0;stroke-opacity:1" />
            <text
         transform="scale(-1,-1)"
         xml:space="preserve"
         style="font-style:normal;font-weight:normal;font-size:17.35793114px;line-height:125%;font-family:sans-serif;letter-spacing:0px;word-spacing:0px;fill:#000000;fill-opacity:1;stroke:none;stroke-width:1px;stroke-linecap:butt;stroke-linejoin:miter;stroke-opacity:1"
         x="-508.98138"
         y="-170.28847"
         id="text4249"><tspan
           id="tspan4251"
           x="-508.98138"
           y="-170.28847"
           style="font-style:normal;font-variant:normal;font-weight:normal;font-stretch:normal;font-family:'Source Sans Pro';-inkscape-font-specification:'Source Sans Pro'">Answer</tspan></text>
        </g>
        <g
                transform="matrix(-1,0,0,-1,676.27935,1195.3925)"
                id="g4269" class="fragment" data-fragment-index="10">
            <path
                    id="path4271"
                    d="m 355.63395,215.29181 c 0,0 12.74549,-12.13791 52.10228,-23.18649"
                    style="fill:none;fill-rule:evenodd;stroke:#ffffff;stroke-width:1px;stroke-linecap:butt;stroke-linejoin:miter;stroke-opacity:1" />
            <path
                    id="path4273"
                    d="m 372.438,199.808 0.86238,1.80326 0.75108,0.0587 4.84524,0.37692 -2.74883,4.00787 -0.42631,0.62143 0.90838,1.90042 2.74879,-4.00694 2.74882,-4.00787 -4.84524,-0.37691 -4.84431,-0.37687 z"
                    style="opacity:1;fill:#ffffff;fill-opacity:1;stroke:none;stroke-width:1;stroke-linecap:butt;stroke-linejoin:round;stroke-miterlimit:4;stroke-dasharray:none;stroke-dashoffset:0;stroke-opacity:1" />
        </g>
        <g
                transform="matrix(-1,0,0,-1,676.27935,1195.3925)"
                id="g4275" class="fragment" data-fragment-index="11">
            <path
                    id="path4277"
                    d="m 480.22681,185.45403 c 0,0 66.93337,0.40322 108.06111,30.6442"
                    style="fill:none;fill-rule:evenodd;stroke:#ffffff;stroke-width:1px;stroke-linecap:butt;stroke-linejoin:miter;stroke-opacity:1" />
            <path
                    style="opacity:1;fill:#ffffff;fill-opacity:1;stroke:none;stroke-width:1;stroke-linecap:butt;stroke-linejoin:round;stroke-miterlimit:4;stroke-dasharray:none;stroke-dashoffset:0;stroke-opacity:1"
                    d="m 533.56035,187.8049 -0.38205,1.96201 0.56817,0.49472 3.66637,3.19001 -4.59579,1.58047 -0.71266,0.245 -0.40301,2.06744 4.5952,-1.57974 4.59577,-1.58047 -3.66636,-3.19001 -3.66565,-3.18942 z"
                    id="path4279" />
        </g>
        <path
                id="path4552-2" class="fragment" data-fragment-index="12"
                d="m 158.99068,942.60131 0,17.42893 q 0,1.44875 -1.03158,2.48044 -1.03174,1.03169 -2.48044,1.03169 l -32.3116,0 q -1.4487,0 -2.48043,-1.03169 -1.03175,-1.03169 -1.03175,-2.48044 l 0,-17.42893 q 0.96586,1.07558 2.21706,1.90973 7.94629,5.39989 10.90974,7.57303 1.25103,0.92191 2.03037,1.43776 0.77918,0.51586 2.0743,1.05364 1.29496,0.5378 2.41455,0.5378 l 0.0432,0 q 1.11959,0 2.41472,-0.5378 1.29513,-0.53778 2.0743,-1.05364 0.77934,-0.51585 2.03054,-1.43776 3.73164,-2.69997 10.93137,-7.57303 1.2512,-0.85609 2.19509,-1.90973 z m 0,-6.45353 q 0,1.73411 -1.0755,3.31456 -1.07567,1.58048 -2.67794,2.69995 -8.2536,5.72917 -10.273,7.13401 -0.21962,0.15374 -0.9329,0.6695 -0.71345,0.51585 -1.18531,0.83414 -0.47204,0.31828 -1.14156,0.7134 -0.66952,0.39512 -1.26218,0.59266 -0.59266,0.19756 -1.09763,0.19756 l -0.0432,0 q -0.50481,0 -1.09747,-0.19756 -0.59266,-0.19754 -1.26219,-0.59266 -0.66951,-0.39512 -1.14138,-0.7134 -0.47203,-0.31829 -1.18532,-0.83414 -0.71344,-0.51584 -0.93307,-0.6695 -1.99743,-1.40484 -5.75104,-4.00602 -3.75342,-2.60117 -4.49999,-3.12799 -1.36084,-0.92194 -2.56813,-2.53531 -1.20727,-1.61338 -1.20727,-2.99629 0,-1.71217 0.91095,-2.85361 0.91095,-1.14143 2.60107,-1.14143 l 32.3116,0 q 1.42689,0 2.46945,1.03169 1.04273,1.03169 1.04273,2.48044 z"
                style="fill:#ffffff" />
        <path
                style="fill:#ffffff"
                d="m 168.15204,957.82732 0,-4.94476 4.94483,0 4.9448,0 0,4.94476 0,4.94485 -4.9448,0 -4.94483,0 0,-4.94485 z m 8.47684,0 0,-3.53199 -3.53201,0 -3.53202,0 0,3.53199 0,3.53204 3.53202,0 3.53201,0 0,-3.53204 z m -5.6512,0 0,-2.11918 2.11919,0 2.1192,0 0,2.11918 0,2.11923 -2.1192,0 -2.11919,0 0,-2.11923 z m 8.4768,3.53204 0,-1.41281 1.41281,0 1.41281,0 0,-0.7064 0,-0.70639 -1.41281,0 -1.41281,0 0,-0.70644 0,-0.70638 0.70639,0 0.70642,0 0,-0.70642 0,-0.70638 0.70638,0 0.70643,0 0,0.70638 0,0.70642 0.70638,0 0.70641,0 0,-1.4128 0,-1.41281 -2.11922,0 -2.11919,0 0,-2.11921 0,-2.1192 -0.7064,0 -0.70641,0 0,0.70642 0,0.70639 -0.70641,0 -0.70638,0 0,-0.70639 0,-0.70642 -1.41281,0 -1.41281,0 0,0.70642 0,0.70639 -2.1192,0 -2.11921,0 0,-0.70639 0,-0.70642 -0.70641,0 -0.7064,0 0,-1.41281 0,-1.41277 1.41281,0 1.41283,0 0,-0.70643 0,-0.70638 -1.41283,0 -1.41281,0 0,-0.7064 0,-0.70641 1.41281,0 1.41283,0 0,0.70641 0,0.7064 0.70638,0 0.7064,0 0,-0.7064 0,-0.70641 0.70641,0 0.70639,0 0,0.70641 0,0.7064 0.70641,0 0.7064,0 0,0.70638 0,0.70643 1.41281,0 1.41279,0 0,-0.70643 0,-0.70638 -0.70641,0 -0.70638,0 0,-0.7064 0,-0.70641 1.41279,0 1.41281,0 0,-2.8256 0,-2.82562 0.70639,0 0.70642,0 0,-0.70639 0,-0.70638 -0.70642,0 -0.70639,0 0,-1.41283 0,-1.41281 0.70639,0 0.70642,0 0,-0.70639 0,-0.70642 0.70638,0 0.70643,0 0,2.82562 0,2.8256 -0.70643,0 -0.70638,0 0,2.11921 0,2.11922 0.70638,0 0.70643,0 0,-0.70641 0,-0.7064 0.70638,0 0.70641,0 0,-0.70641 0,-0.7064 0.7064,0 0.70639,0 0,-0.70639 0,-0.70642 -0.70639,0 -0.7064,0 0,-0.70639 0,-0.70638 0.7064,0 0.70639,0 0,-0.70643 0,-0.7064 -0.70639,0 -0.7064,0 0,-1.41281 0,-1.41281 1.41279,0 1.41283,0 0,0.70642 0,0.70639 -0.70643,0 -0.7064,0 0,0.70641 0,0.7064 0.7064,0 0.70643,0 0,0.7064 0,0.70643 -0.70643,0 -0.7064,0 0,0.70638 0,0.70639 0.7064,0 0.70643,0 0,2.82562 0,2.8256 -1.41283,0 -1.41279,0 0,1.41281 0,1.41281 -0.70641,0 -0.70638,0 0,1.41277 0,1.41281 0.70638,0 0.70641,0 0,-0.70639 0,-0.70642 0.7064,0 0.70639,0 0,-0.70639 0,-0.70638 1.41283,0 1.41279,0 0,-1.41281 0,-1.41281 2.11919,0 2.11922,0 0,0.70641 0,0.7064 -1.41281,0 -1.41279,0 0,0.70638 0,0.70643 -0.70641,0 -0.7064,0 0,0.70638 0,0.70639 -1.41279,0 -1.41283,0 0,0.70642 0,0.70639 0.7064,0 0.70643,0 0,0.70642 0,0.70639 -0.70643,0 -0.7064,0 0,0.70639 0,0.70644 -0.70639,0 -0.7064,0 0,0.70638 0,0.70639 1.41279,0 1.41283,0 0,-0.70639 0,-0.70638 0.70638,0 0.70641,0 0,1.41277 0,1.41281 0.7064,0 0.70641,0 0,-2.1192 0,-2.11921 -0.70641,0 -0.7064,0 0,-0.70639 0,-0.70642 0.7064,0 0.70641,0 0,0.70642 0,0.70639 0.70638,0 0.70641,0 0,-0.70639 0,-0.70642 0.70639,0 0.70642,0 0,-1.41281 0,-1.41277 0.7064,0 0.70639,0 0,-1.41281 0,-1.41281 1.41281,0 1.4128,0 0,0.70641 0,0.7064 0.70641,0 0.70639,0 0,2.11919 0,2.1192 -0.70639,0 -0.70641,0 0,0.70642 0,0.70639 0.70641,0 0.70639,0 0,0.70639 0,0.70644 -0.70639,0 -0.70641,0 0,0.70638 0,0.70639 -0.70641,0 -0.70639,0 0,-0.70639 0,-0.70638 0.70639,0 0.70641,0 0,-0.70644 0,-0.70639 -0.70641,0 -0.70639,0 0,-1.41281 0,-1.41281 0.70639,0 0.70641,0 0,-0.70639 0,-0.70638 -1.4128,0 -1.41281,0 0,3.532 0,3.53199 -0.70639,0 -0.7064,0 0,1.41281 0,1.4128 0.7064,0 0.70639,0 0,0.70638 0,0.70644 0.70641,0 0.7064,0 0,-0.70644 0,-0.70638 0.70639,0 0.70641,0 0,-0.70642 0,-0.70638 0.70641,0 0.70639,0 0,2.11918 0,2.11923 -0.70639,0 -0.70641,0 0,-0.7064 0,-0.70639 -0.70641,0 -0.70639,0 0,0.70639 0,0.7064 -1.41281,0 -1.41279,0 0,0.70641 0,0.7064 0.7064,0 0.70639,0 0,0.70642 0,0.70639 -0.70639,0 -0.7064,0 0,-0.70639 0,-0.70642 -0.70642,0 -0.70639,0 0,0.70642 0,0.70639 -0.70641,0 -0.70638,0 0,-0.70639 0,-0.70642 -1.41281,0 -1.41279,0 0,0.70642 0,0.70639 -1.41283,0 -1.41279,0 0,-0.70639 0,-0.70642 -1.41279,0 -1.41281,0 0,0.70642 0,0.70639 -0.70642,0 -0.70639,0 0,-1.41281 z m 7.06403,-0.7064 0,-0.70641 1.41279,0 1.41281,0 0,0.70641 0,0.7064 0.70638,0 0.70641,0 0,-1.41281 0,-1.41279 0.70639,0 0.70642,0 0,-0.70644 0,-0.70638 -0.70642,0 -0.70639,0 0,0.70638 0,0.70644 -0.70641,0 -0.70638,0 0,-0.70644 0,-0.70638 -0.70641,0 -0.7064,0 0,-0.70642 0,-0.70638 -1.41279,0 -1.41283,0 0,1.4128 0,1.41282 -0.70639,0 -0.7064,0 0,1.41279 0,1.41281 1.41279,0 1.41283,0 0,-0.7064 z m -1.41283,-1.41281 0,-0.70639 0.7064,0 0.70643,0 0,0.70639 0,0.7064 -0.70643,0 -0.7064,0 0,-0.7064 z m 7.06403,-5.65121 0,-0.70638 -0.70642,0 -0.70639,0 0,0.70638 0,0.70639 0.70639,0 0.70642,0 0,-0.70639 z m -9.88961,-1.41282 0,-0.70639 -0.70643,0 -0.70638,0 0,0.70639 0,0.70644 0.70638,0 0.70643,0 0,-0.70644 z m 2.82558,-1.41278 0,-0.70642 -0.70639,0 -0.7064,0 0,0.70642 0,0.70639 0.7064,0 0.70639,0 0,-0.70639 z m -12.71522,-1.41281 0,-0.70642 -1.41278,0 -1.41283,0 0,0.70642 0,0.70639 1.41283,0 1.41278,0 0,-0.70639 z m 5.65121,0 0,-0.70642 -0.70641,0 -0.70638,0 0,0.70642 0,0.70639 0.70638,0 0.70641,0 0,-0.70639 z m 2.82562,-2.11919 0,-2.82562 -0.70642,0 -0.70639,0 0,2.82562 0,2.82558 0.70639,0 0.70642,0 0,-2.82558 z m -7.06403,-0.70643 0,-0.70638 -0.70639,0 -0.70641,0 0,0.70638 0,0.70643 0.70641,0 0.70639,0 0,-0.70643 z m 11.30242,-4.23839 0,-0.7064 -0.70639,0 -0.7064,0 0,0.7064 0,0.70641 0.7064,0 0.70639,0 0,-0.70641 z m 9.88963,19.77926 0,-0.70642 0.70639,0 0.70641,0 0,0.70642 0,0.70639 -0.70641,0 -0.70639,0 0,-0.70639 z m -26.84327,-24.01767 0,-4.94483 4.94483,0 4.9448,0 0,4.94483 0,4.94482 -4.9448,0 -4.94483,0 0,-4.94482 z m 8.47684,0 0,-3.53202 -3.53201,0 -3.53202,0 0,3.53202 0,3.53201 3.53202,0 3.53201,0 0,-3.53201 z m -5.6512,0 0,-2.11921 2.11919,0 2.1192,0 0,2.11921 0,2.1192 -2.1192,0 -2.11919,0 0,-2.1192 z m 16.95362,0 0,-4.94483 4.94481,0 4.9448,0 0,4.94483 0,4.94482 -4.9448,0 -4.94481,0 0,-4.94482 z m 8.47681,0 0,-3.53202 -3.532,0 -3.532,0 0,3.53202 0,3.53201 3.532,0 3.532,0 0,-3.53201 z m -5.65121,0 0,-2.11921 2.11921,0 2.1192,0 0,2.11921 0,2.1192 -2.1192,0 -2.11921,0 0,-2.1192 z"
                id="path4452-7-8" class="fragment" data-fragment-index="13" />
        <path
                style="fill:#ffffff"
                class="cls-1 fragment"
                d="m 232.35226,955.42964 4.95693,0 0,-11.901 -5.58398,-5.58396 -3.50634,3.50323 4.13339,4.13338 0,9.84835 0,0 z m 4.96939,2.48471 -17.29,0 -4.12558,-4.13181 1.75321,-1.75317 3.4143,3.41431 7.01894,0 -6.91911,-6.93159 1.76251,-1.76098 6.91913,6.91912 0,-7.01895 -3.40026,-3.40029 1.73913,-1.73913 -8.59431,-8.64266 -17.26348,0 4.94446,4.94446 0,0.0128 10.25391,0 3.62174,3.62176 -5.30318,5.3032 -3.61552,-3.62801 0,-2.80758 -4.95695,0 0,4.86023 8.5787,8.57871 -3.49231,3.49386 5.58394,5.58397 24.31521,0 -4.94448,-4.91796 0,0 z"
                id="path4718" data-fragment-index="14" />
        <path
                style="fill:#ffffff"
                d="m 257.7855,962.62487 c 0,-0.0972 0.22801,-0.32513 0.36676,-0.36671 0.1326,-0.0398 0.35231,-0.0318 0.5048,0.0183 0.12146,0.0399 0.14109,0.0411 0.19663,0.0116 0.034,-0.0174 0.0756,-0.0487 0.0927,-0.0692 0.0863,-0.10396 0.34182,-0.20631 0.5154,-0.20631 0.0513,0 0.16022,0.0133 0.24215,0.0307 0.082,0.017 0.19089,0.0311 0.24198,0.0315 0.0511,3.6e-4 0.10482,0.009 0.11962,0.0173 0.0529,0.0326 1.13616,0.0407 1.19854,0.009 0.0398,-0.0203 0.25042,-0.0487 0.41585,-0.0562 0.26419,-0.0116 0.44888,-0.0398 0.47214,-0.0714 0.0167,-0.0222 0.0499,-0.0289 0.10932,-0.0218 0.0558,0.006 0.13859,-0.009 0.23726,-0.041 0.0832,-0.0282 0.19796,-0.0513 0.25475,-0.0513 0.10982,0 0.1534,-0.0303 0.28716,-0.19904 0.0325,-0.041 0.10127,-0.12745 0.15324,-0.19224 0.18286,-0.22873 0.31418,-0.39431 0.42129,-0.53128 0.54851,-0.70144 0.76717,-1.08006 0.67994,-1.17733 -0.0167,-0.0183 -0.0295,-0.0579 -0.0289,-0.0878 0.001,-0.0975 -0.0863,-0.53426 -0.11997,-0.59744 -0.0389,-0.0732 -0.14026,-0.19018 -0.16472,-0.19018 -0.009,0 -0.0377,-0.0422 -0.0629,-0.0936 -0.044,-0.0905 -0.0741,-0.13145 -0.21495,-0.29326 -0.058,-0.0665 -0.0726,-0.073 -0.12246,-0.0539 -0.0519,0.0197 -0.059,0.0149 -0.0857,-0.0528 -0.0228,-0.0577 -0.0356,-0.0689 -0.0581,-0.0502 -0.0225,0.0188 -0.0289,0.0133 -0.0289,-0.0259 0,-0.0671 -0.103,-0.23979 -0.1431,-0.23979 -0.0175,0 -0.0318,-0.009 -0.0318,-0.0179 0,-0.021 -0.16072,-0.092 -0.31722,-0.14009 -0.0602,-0.0185 -0.19063,-0.0641 -0.28989,-0.10127 -0.14309,-0.0535 -0.18051,-0.0611 -0.18051,-0.0355 0,0.0178 0.01,0.0323 0.0218,0.0323 0.0116,0 0.0218,0.024 0.0218,0.0531 0,0.0296 0.0227,0.0708 0.0513,0.0933 0.0501,0.0395 0.1153,0.13793 0.0914,0.13793 -0.0133,0 -0.1569,-0.0869 -0.27921,-0.16932 -0.11413,-0.0771 -0.25207,-0.10062 -0.28439,-0.0489 -0.0292,0.0468 -0.0616,0.0367 -0.18657,-0.0587 -0.0514,-0.0392 -0.13011,-0.0772 -0.17502,-0.0842 -0.0449,-0.006 -0.12062,-0.0218 -0.16853,-0.0326 -0.0649,-0.0149 -0.0953,-0.0116 -0.12029,0.01 -0.021,0.0186 -0.0786,0.0283 -0.15523,0.0258 -0.0993,-0.003 -0.14992,-0.0206 -0.27349,-0.0936 -0.0833,-0.0492 -0.3034,-0.17985 -0.48885,-0.29005 -0.18547,-0.11015 -0.37744,-0.20946 -0.42664,-0.22057 -0.0492,-0.0116 -0.22234,-0.088 -0.38479,-0.17069 -0.27091,-0.1381 -0.49207,-0.21993 -0.51958,-0.19241 -0.005,0.006 0.0349,0.0623 0.0912,0.12478 0.0562,0.0626 0.0972,0.12713 0.0908,0.1436 -0.006,0.0167 0.024,0.069 0.0672,0.1168 0.13027,0.14409 0.0116,0.11015 -0.23008,-0.066 -0.15074,-0.10981 -0.28711,-0.16572 -0.28711,-0.11797 0,0.0167 -0.005,0.0303 -0.01,0.0303 -0.005,0 -0.1017,-0.0605 -0.21331,-0.13461 -0.29469,-0.19542 -0.52361,-0.39609 -0.91489,-0.80202 -0.33303,-0.34549 -0.4448,-0.44162 -0.51343,-0.44162 -0.0377,0 -0.028,0.0288 0.10385,0.3017 0.0481,0.0999 0.083,0.186 0.0774,0.19167 -0.005,0.005 -0.0832,-0.0613 -0.17235,-0.14858 -0.19662,-0.19276 -0.28253,-0.26441 -0.29824,-0.2487 -0.01,0.01 0.15773,0.31457 0.1891,0.34145 0.006,0.006 0.0276,0.0298 0.0456,0.0528 0.0307,0.0391 0.0301,0.0401 -0.0116,0.0149 -0.0241,-0.0149 -0.11265,-0.11181 -0.19692,-0.21468 -0.0842,-0.103 -0.22452,-0.27071 -0.31175,-0.37288 -0.0872,-0.10213 -0.15856,-0.19446 -0.15856,-0.20507 0,-0.01 -0.0587,-0.0823 -0.13045,-0.15956 -0.0717,-0.0772 -0.15157,-0.18522 -0.17745,-0.24011 -0.0258,-0.0549 -0.0569,-0.0999 -0.069,-0.0999 -0.0133,0 -0.01,0.0133 0.005,0.0328 0.0343,0.0413 0.005,0.0431 -0.0419,0.003 -0.0431,-0.0377 -0.13293,-0.0664 -0.13293,-0.0425 1e-5,0.01 0.0197,0.0698 0.0438,0.13295 0.0547,0.14409 0.0556,0.16621 0.005,0.13893 -0.045,-0.0241 -0.21842,-0.23552 -0.26739,-0.32596 -0.0449,-0.0829 -0.37054,-0.51857 -0.474,-0.63419 -0.082,-0.0917 -0.0856,-0.0932 -0.18213,-0.0759 -0.0884,0.0167 -0.0978,0.0233 -0.092,0.0724 0.009,0.08 -0.0711,0.078 -0.15656,-0.003 -0.0377,-0.0361 -0.0933,-0.079 -0.12328,-0.0951 -0.0628,-0.0337 -0.3063,-0.28199 -0.3063,-0.31203 0,-0.0116 -0.0355,-0.0587 -0.0787,-0.10601 l -0.0787,-0.086 0.0116,0.0657 c 0.0186,0.10865 0.0933,0.34368 0.1426,0.4485 0.0464,0.099 0.0644,0.20254 0.0282,0.16306 -0.01,-0.0116 -0.0614,-0.0996 -0.11314,-0.19582 -0.0517,-0.0963 -0.11363,-0.20947 -0.13743,-0.25158 -0.0238,-0.0421 -0.0702,-0.12696 -0.10299,-0.1885 -0.0328,-0.0616 -0.0975,-0.1797 -0.14392,-0.26253 -0.0464,-0.0829 -0.12196,-0.21955 -0.1677,-0.30377 -0.11597,-0.21314 -0.4006,-0.79803 -0.42059,-0.8642 -0.009,-0.0301 -0.0737,-0.19833 -0.14358,-0.37389 -0.20097,-0.50518 -0.40708,-1.13286 -0.47716,-1.45294 -0.11812,-0.53984 -0.24867,-1.33537 -0.28753,-1.75252 -0.0245,-0.26348 -0.0698,-0.65776 -0.1003,-0.87616 -0.0592,-0.42161 -0.0735,-0.57705 -0.12761,-1.37503 -0.0186,-0.27677 -0.0496,-0.71488 -0.0684,-0.97359 -0.0263,-0.35923 -0.0359,-0.90981 -0.0413,-2.33003 -0.003,-1.0228 -0.0116,-1.96794 -0.0183,-2.1003 -0.0225,-0.47355 -0.0516,-0.74407 -0.0908,-0.84232 -0.0326,-0.0814 -0.0389,-0.15881 -0.0371,-0.44653 0.001,-0.2235 -0.006,-0.35841 -0.0216,-0.37696 -0.0133,-0.0163 -0.0241,-0.11678 -0.0241,-0.23071 -9e-5,-0.14361 -0.01,-0.21649 -0.0334,-0.25262 -0.0238,-0.0361 -0.0295,-0.0792 -0.0197,-0.14946 0.0167,-0.12131 -0.0325,-0.15833 -0.097,-0.0731 -0.0394,0.0522 -0.0401,0.0522 -0.0731,0.009 -0.0183,-0.0241 -0.0336,-0.0663 -0.034,-0.0939 -3.5e-4,-0.0276 -0.0228,-0.08 -0.0499,-0.11657 -0.0403,-0.0545 -0.0517,-0.10657 -0.0632,-0.289 -0.0213,-0.33694 -0.13926,-0.55587 -0.31925,-0.59201 -0.2204,-0.0443 -0.53678,-0.0775 -0.56991,-0.0599 -0.0206,0.011 -0.10665,0.0363 -0.1909,0.0562 -0.0842,0.0199 -0.17024,0.0455 -0.19113,0.057 -0.021,0.0115 -0.0522,0.0209 -0.0699,0.0209 -0.0176,0 -0.0447,0.0172 -0.0604,0.0383 -0.028,0.0375 -0.15591,0.093 -0.21427,0.093 -0.0167,0 -0.0991,0.043 -0.1844,0.0956 -0.21915,0.1352 -0.33262,0.19479 -0.48316,0.25378 -0.0722,0.0283 -0.14692,0.0646 -0.16588,0.0808 -0.0492,0.0418 -0.0639,0.016 -0.0639,-0.11361 0,-0.34155 0.10898,-0.57143 0.42007,-0.8854 0.19395,-0.1958 0.24155,-0.25857 0.32234,-0.42502 0.13444,-0.27687 0.20207,-0.37609 0.34085,-0.49977 0.11963,-0.10669 0.12163,-0.11045 0.11781,-0.22087 -0.009,-0.2216 0.0292,-0.52837 0.0767,-0.6337 0.0547,-0.12197 0.14441,-0.36047 0.14441,-0.38375 0,-0.0123 0.0388,-0.11214 0.0863,-0.22168 0.1321,-0.30465 0.43324,-0.72691 0.66155,-0.92773 0.16605,-0.14612 0.45963,-0.34314 0.6632,-0.44518 0.472,-0.23658 1.19926,-0.36225 1.79249,-0.30975 0.29047,0.0257 0.8527,0.14103 1.10125,0.22588 0.19333,0.066 0.71177,0.34794 0.80737,0.43906 0.038,0.0364 0.10202,0.0888 0.14226,0.11659 0.0401,0.0278 0.12246,0.0869 0.18317,0.13128 0.0607,0.0444 0.17377,0.12505 0.25139,0.1792 0.15391,0.10742 0.30457,0.25513 0.50191,0.49226 0.07,0.0842 0.20322,0.23191 0.29581,0.32818 0.17251,0.17933 0.30159,0.37065 0.32196,0.4772 0.0116,0.0592 0.0116,0.0596 -0.0422,0.0248 -0.0727,-0.0477 -0.0962,-0.017 -0.0288,0.0377 0.0298,0.024 0.069,0.0662 0.0875,0.0936 0.0185,0.0275 0.0594,0.0884 0.0908,0.13549 0.0315,0.0471 0.0646,0.11976 0.0734,0.16156 0.0288,0.13632 0.28675,0.69138 0.41754,0.89858 0.0295,0.0465 0.0541,0.10192 0.055,0.1232 8.6e-4,0.0213 0.0398,0.10764 0.0862,0.19187 0.11947,0.21653 0.306,0.59274 0.306,0.6172 0,0.0113 0.0245,0.0436 0.0544,0.0717 0.0401,0.0376 0.0484,0.0585 0.0315,0.0789 -0.0249,0.0302 0.0936,0.22758 0.29108,0.48436 0.0577,0.075 0.15341,0.21073 0.21274,0.30162 0.19208,0.29424 0.52638,0.65724 0.72274,0.78479 0.0784,0.0509 0.16717,0.10933 0.19728,0.12978 0.15556,0.10573 0.22877,0.15235 0.32471,0.20671 0.0579,0.0328 0.13161,0.0781 0.16372,0.10049 0.0574,0.0401 0.0634,0.0397 0.37016,-0.0207 0.35898,-0.0708 0.79871,-0.0888 1.09774,-0.0452 0.209,0.0305 0.63848,0.0108 0.71679,-0.0329 0.0671,-0.0374 0.73663,-0.0402 0.86015,-0.003 0.0481,0.0143 0.13677,0.0375 0.1969,0.0516 0.0602,0.0141 0.14874,0.0384 0.19691,0.054 0.0481,0.0156 0.15457,0.0453 0.23636,0.066 0.0818,0.0207 0.16056,0.0491 0.17502,0.0632 0.0149,0.0142 0.0823,0.0483 0.15108,0.076 0.12529,0.0505 0.21883,0.12022 0.13045,0.0971 -0.0234,-0.006 -0.0495,2e-5 -0.058,0.0136 -0.0253,0.041 0.0328,0.0882 0.10579,0.0858 0.0377,-10e-4 0.15524,0.0284 0.26106,0.0658 0.10579,0.0375 0.20975,0.0681 0.23083,0.0681 0.0212,0 0.0477,0.008 0.059,0.0181 0.0116,0.01 0.065,0.0308 0.1193,0.0463 0.10418,0.0299 0.20116,0.0608 0.27349,0.0874 0.0241,0.009 0.20956,0.0969 0.41221,0.19561 0.25821,0.12583 0.36501,0.18849 0.35697,0.20942 -0.0133,0.0338 0.0589,0.0668 0.19346,0.0886 0.0483,0.008 0.10764,0.0272 0.13227,0.0431 0.0458,0.0294 0.2635,0.11048 0.65529,0.24399 0.1203,0.041 0.26306,0.0954 0.31723,0.12079 0.0541,0.0254 0.17228,0.0754 0.26253,0.11098 0.22425,0.0885 0.77424,0.35724 0.90795,0.44371 0.0602,0.0389 0.15923,0.0972 0.21999,0.12959 0.0609,0.0324 0.15923,0.0956 0.21877,0.14045 0.0596,0.0449 0.14759,0.10168 0.1957,0.12625 0.23507,0.11996 0.71165,0.42268 1.11321,0.70712 0.0982,0.0695 0.1832,0.21853 0.13993,0.24523 -0.0353,0.0219 0.0619,0.12832 0.1173,0.12832 0.0216,0 0.0715,0.0143 0.11114,0.0319 0.0395,0.0175 0.23923,0.0969 0.4438,0.17641 0.43253,0.16811 0.75629,0.30939 1.01639,0.44351 0.20594,0.10621 0.33797,0.15692 0.40973,0.1574 0.0263,1.7e-4 0.0756,0.0115 0.10931,0.0251 0.034,0.0136 0.11081,0.0263 0.17097,0.0282 0.0602,0.002 0.29155,0.0454 0.51416,0.0969 0.2226,0.0514 0.4835,0.10739 0.57977,0.12437 0.16305,0.0287 0.61629,0.13845 0.76572,0.1853 0.12829,0.0403 0.46315,0.0926 0.71104,0.11131 0.40791,0.0307 1.15427,0.0677 1.37836,0.0684 0.30246,8.7e-4 1.00553,-0.0235 1.02507,-0.0356 0.009,-0.006 0.085,-0.0153 0.16857,-0.0213 0.54665,-0.0396 0.60036,-0.0411 0.60036,-0.0166 0,0.0138 -0.009,0.025 -0.0203,0.025 -0.0406,0 -0.15491,0.11446 -0.15491,0.15509 0,0.0567 0.12478,0.0568 0.223,2e-5 0.18978,-0.1096 0.22733,-0.11324 1.27461,-0.12364 1.12911,-0.0113 1.40389,-0.0317 2.6155,-0.19517 0.49083,-0.0662 1.41608,-0.14912 1.49318,-0.13378 0.0331,0.007 0.0872,10e-4 0.12029,-0.0115 0.0749,-0.0292 0.55404,-0.0517 1.04469,-0.0492 0.39118,0.002 0.51902,0.0163 0.59012,0.0656 0.0238,0.0165 0.0759,0.03 0.1158,0.03 0.0715,0 0.0726,10e-4 0.058,0.0786 l -0.0149,0.0786 0.0674,-0.0348 c 0.10063,-0.0521 0.24457,-0.0419 0.24457,0.0173 0,0.0141 -0.0222,0.045 -0.0492,0.0688 -0.0474,0.0417 -0.0581,0.0461 -0.1228,0.0516 -0.0219,0.002 -0.0259,0.0226 -0.0149,0.0791 0.0133,0.069 0.009,0.0766 -0.0346,0.0766 -0.027,0 -0.14807,0.0493 -0.26898,0.10963 -0.12095,0.0603 -0.31839,0.14326 -0.43871,0.18436 -0.1203,0.0411 -0.31725,0.11068 -0.43757,0.15462 -0.48596,0.17748 -0.83533,0.29385 -1.41115,0.47004 -0.75734,0.23173 -2.29154,0.74108 -2.99731,0.9951 -0.39778,0.14318 -0.5032,0.19097 -0.5032,0.22816 0,0.0294 0.1061,0.0629 0.28441,0.0897 0.2162,0.0325 0.48996,0.0818 0.73294,0.13179 0.3859,0.0795 0.65945,0.13051 0.87512,0.1632 0.1203,0.0182 0.32708,0.0527 0.45944,0.0766 0.13243,0.0239 0.28562,0.0436 0.34058,0.0437 0.0549,1.4e-4 0.1731,0.0204 0.26255,0.0449 0.0896,0.0246 0.20199,0.0498 0.25011,0.0561 0.19213,0.0251 0.83122,0.22967 1.02778,0.32901 0.21668,0.10952 0.22497,0.12571 0.055,0.10784 -0.26276,-0.0276 -1.03321,-0.0454 -1.82682,-0.042 -0.83866,0.004 -1.43666,0.037 -2.26442,0.12681 -0.27073,0.0294 -0.60548,0.0636 -0.74384,0.0761 -0.13844,0.0125 -0.4682,0.0468 -0.73294,0.0764 -0.53944,0.0603 -0.94519,0.0907 -1.61697,0.12133 -0.44395,0.0202 -0.54882,0.04 -0.47221,0.0892 0.0407,0.0261 0.83222,0.27923 1.12655,0.36024 0.47117,0.12969 1.04776,0.33885 1.51902,0.55105 0.0654,0.0295 0.18841,0.0763 0.27349,0.10417 0.38894,0.12744 1.13406,0.46385 1.27904,0.57748 0.078,0.0612 0.0441,0.089 -0.0793,0.0649 -0.0574,-0.0113 -0.15091,-0.0146 -0.20795,-0.008 -0.0733,0.009 -0.12345,0.002 -0.1718,-0.0224 -0.11032,-0.057 -0.26453,-0.0984 -0.25467,-0.0684 0.0249,0.0761 0.18294,0.13731 0.96766,0.37499 0.76545,0.23184 1.47392,0.47976 1.8192,0.63661 0.038,0.0172 0.0748,0.0313 0.0823,0.0313 0.009,0 0.055,0.0185 0.10611,0.0412 0.051,0.0227 0.24535,0.097 0.43186,0.16523 0.18651,0.0682 0.38341,0.14329 0.43757,0.16683 0.31864,0.13857 1.65955,0.56634 2.40165,0.76617 0.0875,0.0237 0.20076,0.0565 0.25161,0.0734 0.15108,0.0501 0.38275,0.11581 0.65034,0.18475 0.13843,0.0356 0.33035,0.086 0.42663,0.11198 0.0961,0.0259 0.28333,0.0752 0.41569,0.10965 0.23747,0.0617 0.33376,0.0875 0.63445,0.17016 0.0844,0.0231 0.32544,0.0889 0.53602,0.14609 0.21059,0.0571 0.48133,0.13127 0.60166,0.16472 0.12029,0.0334 0.33693,0.0917 0.48131,0.12927 0.14442,0.0376 0.29209,0.0774 0.32817,0.0884 0.0361,0.0116 0.13944,0.0368 0.22973,0.0574 0.18007,0.0414 0.20262,0.0526 0.17959,0.0892 -0.0149,0.0245 -0.23066,0.009 -0.79218,-0.0595 -0.28014,-0.0338 -0.46407,-0.0367 -0.47429,-0.006 -0.009,0.0219 0.322,0.1554 0.60482,0.24473 0.0915,0.0289 0.13128,0.0557 0.16916,0.11431 0.0273,0.042 0.0578,0.0867 0.0682,0.0991 0.01,0.0116 0.0244,0.0583 0.0314,0.10181 0.0116,0.0671 0.005,0.0811 -0.0314,0.0908 -0.0665,0.0174 -0.0361,0.0659 0.0549,0.0873 0.0443,0.01 0.0804,0.0268 0.0804,0.0361 0,0.0243 -0.10138,0.0407 -0.13245,0.0216 -0.0149,-0.009 -0.0912,-0.0116 -0.17097,-0.006 -0.0797,0.005 -0.17217,0.009 -0.20526,0.009 -0.0331,-5.2e-4 -0.0602,0.01 -0.0602,0.0213 0,0.0116 -0.021,0.0223 -0.0465,0.0223 -0.0256,0 -0.082,0.0219 -0.12529,0.0486 -0.0502,0.0311 -0.11447,0.0489 -0.17761,0.0492 -0.086,5.3e-4 -0.0999,0.006 -0.106,0.0502 -0.005,0.0399 0.009,0.0564 0.0765,0.0833 0.24327,0.098 0.35949,0.17311 0.42441,0.27428 0.0359,0.0562 0.0857,0.10729 0.11031,0.11381 0.0641,0.0168 0.0446,0.0905 -0.0249,0.0947 -0.0298,0.002 -0.0686,0.005 -0.086,0.005 -0.0246,0.002 -0.0258,0.009 -0.005,0.0285 0.0149,0.0149 0.0263,0.0316 0.0263,0.0383 2e-5,0.006 -0.086,0.0133 -0.19144,0.0133 -0.254,0.002 -0.4611,0.0306 -0.49976,0.0693 -0.0225,0.0225 -0.0561,0.0273 -0.11781,0.0168 -0.0474,-0.009 -0.099,-0.006 -0.11447,0.003 -0.0149,0.01 -0.0626,0.0182 -0.10482,0.0182 -0.10898,0 -0.0991,0.0547 0.0203,0.11214 0.10331,0.0496 0.10095,0.0528 -0.0586,0.0848 -0.0391,0.009 -0.0711,0.0273 -0.0711,0.0431 0,0.0316 0.14193,0.16455 0.1758,0.16455 0.0116,0 0.0417,0.0206 0.0669,0.0458 l 0.0458,0.0458 -0.0586,0.0304 c -0.0414,0.0215 -0.0826,0.0252 -0.13976,0.0116 -0.10482,-0.0236 -0.37408,0.009 -0.41519,0.0501 -0.0385,0.0385 -0.0204,0.069 0.14759,0.25309 0.0735,0.0805 0.10245,0.12745 0.0878,0.14225 -0.0116,0.0116 -0.10267,0.027 -0.20128,0.0329 -0.17917,0.0116 -0.17939,0.0116 -0.1906,0.0765 -0.0171,0.10051 -0.1153,0.1158 -0.42858,0.0668 -0.15073,-0.0237 -0.29756,-0.0343 -0.36372,-0.0264 -0.11746,0.0133 -0.35733,-0.0116 -0.57505,-0.0617 -0.0722,-0.0167 -0.23465,-0.0521 -0.36101,-0.0789 -0.37459,-0.0795 -1.42513,-0.31986 -1.77213,-0.40531 -0.12627,-0.0312 -0.3774,-0.0899 -0.55789,-0.13044 -0.36079,-0.0812 -0.38355,-0.0872 -0.70009,-0.18596 -0.18428,-0.0574 -0.26023,-0.0692 -0.48134,-0.0747 -0.15606,-0.003 -0.51101,-0.042 -0.87512,-0.0943 -0.33692,-0.0483 -0.66674,-0.0945 -0.73291,-0.10267 -0.22198,-0.0273 -0.62046,-0.10202 -1.00404,-0.18823 -0.2093,-0.0471 -0.42432,-0.0855 -0.47784,-0.0855 l -0.0973,0 0.009,0.10396 c 0.009,0.13344 0.002,0.13444 -0.40254,0.0623 -0.1716,-0.0306 -0.44,-0.0762 -0.59643,-0.10149 -0.1564,-0.0253 -0.33999,-0.0601 -0.4079,-0.0772 -0.11215,-0.0285 -0.41724,-0.0431 -0.35237,-0.0168 0.0344,0.0133 0.0356,0.0666 0.002,0.0778 -0.0263,0.009 -0.0133,0.0253 0.0802,0.0953 0.0499,0.0377 0.0955,0.0401 -0.43757,-0.023 -0.16847,-0.02 -0.34568,-0.0313 -0.3938,-0.0252 -0.0628,0.009 -0.15873,-0.0116 -0.33913,-0.0668 -0.13842,-0.0428 -0.29591,-0.0857 -0.35005,-0.0954 -0.0541,-0.01 -0.12611,-0.0282 -0.16005,-0.0413 -0.11015,-0.0425 -0.13877,-0.031 -0.0799,0.0318 0.0429,0.0458 0.0477,0.0629 0.0271,0.096 -0.0133,0.0221 -0.0197,0.0611 -0.0133,0.0865 0.006,0.0255 0.006,0.0462 -6.8e-4,0.0462 -0.006,0 -0.0939,-0.0296 -0.1927,-0.0657 -0.19054,-0.0696 -0.31253,-0.0851 -0.29779,-0.0383 0.005,0.0149 0.0399,0.0414 0.0784,0.0587 0.0671,0.0301 0.0935,0.0672 0.048,0.0672 -0.0404,0 -0.0225,0.0361 0.0328,0.0657 0.03,0.0167 0.0547,0.0423 0.0547,0.058 0,0.0356 -0.13611,0.0211 -0.36606,-0.0386 -0.1955,-0.051 -0.41018,-0.0564 -0.39238,-0.01 0.01,0.0256 5.2e-4,0.0273 -0.0528,0.009 -0.0356,-0.0116 -0.0799,-0.0167 -0.0985,-0.01 -0.0285,0.0116 -0.0248,0.0248 0.0222,0.0863 0.0569,0.0745 0.0716,0.12396 0.0368,0.12396 -0.01,0 -0.0314,-0.0149 -0.0464,-0.0328 -0.0702,-0.0847 -0.19444,0.0273 -0.13526,0.12196 0.0149,0.0231 0.0195,0.0421 0.0116,0.0421 -0.0314,0 -0.20157,-0.0909 -0.22679,-0.12146 -0.0149,-0.0174 -0.049,-0.0318 -0.0766,-0.0318 -0.0277,0 -0.0635,-0.0133 -0.0796,-0.0291 -0.0167,-0.0167 -0.0401,-0.0255 -0.0535,-0.021 -0.0133,0.005 -0.0541,-0.0168 -0.0905,-0.0474 -0.0763,-0.0642 -0.0927,-0.0682 -0.0927,-0.0228 0,0.049 -0.0204,0.0404 -0.0885,-0.0376 l -0.0614,-0.0704 -0.0149,0.0587 c -0.01,0.0404 -0.003,0.0697 0.0203,0.0939 0.0192,0.0192 0.0349,0.0499 0.0349,0.0683 0,0.0267 -0.0175,0.0303 -0.0881,0.0183 -0.0549,-0.01 -0.0996,-0.005 -0.11797,0.01 -0.0332,0.0276 -0.17716,-0.0195 -0.27503,-0.09 -0.0303,-0.0218 -0.10832,-0.044 -0.17503,-0.0496 -0.0662,-0.005 -0.15974,-0.0245 -0.20778,-0.0419 -0.0481,-0.0174 -0.0948,-0.0273 -0.10396,-0.0218 -0.0286,0.0176 -0.0179,0.0514 0.0167,0.0514 0.018,0 0.0329,0.01 0.0329,0.0219 0,0.0116 -0.0167,0.0218 -0.0351,0.0218 -0.0231,0 -0.0306,0.0116 -0.0218,0.0348 0.0116,0.0298 0,0.0326 -0.0797,0.0192 -0.0513,-0.009 -0.10966,-0.0241 -0.12995,-0.0347 -0.0572,-0.03 -0.10536,-0.023 -0.10536,0.0149 0,0.0191 0.0197,0.0401 0.0438,0.0462 0.0432,0.0116 0.062,0.0501 0.0241,0.0501 -0.0444,0 -0.0459,0.0771 -0.002,0.1356 0.0249,0.0338 0.0353,0.0614 0.0228,0.0614 -0.0116,0 -0.0225,0.0133 -0.0225,0.0313 0,0.0434 -0.0601,0.0583 -0.18724,0.0461 -0.0939,-0.009 -0.10299,-0.006 -0.0693,0.0191 0.0368,0.0279 0.0368,0.03 -0.003,0.0404 -0.0233,0.006 -0.0532,1.6e-4 -0.0666,-0.0133 -0.0176,-0.0176 -0.0203,-0.005 -0.01,0.0462 0.0149,0.0752 -0.0218,0.097 -0.0745,0.0443 -0.0186,-0.0186 -0.0263,-0.0191 -0.0263,-10e-4 0,0.0133 -0.0264,0.028 -0.0589,0.0318 -0.0562,0.006 -0.0571,0.009 -0.0203,0.0453 0.0323,0.0321 0.0331,0.0383 0.005,0.0383 -0.0443,0 -0.14476,-0.0465 -0.14476,-0.0671 0,-0.009 -0.0297,-0.0264 -0.0656,-0.0391 -0.10352,-0.0361 -0.0789,0.0321 0.0328,0.0907 0.0739,0.0388 0.18596,0.13909 0.18596,0.16641 0,0.0325 -0.10998,-0.002 -0.13909,-0.0438 -0.0248,-0.0353 -0.0374,-0.0373 -0.0967,-0.0149 -0.0576,0.0218 -0.0747,0.02 -0.10931,-0.0116 -0.0227,-0.0204 -0.0528,-0.0373 -0.0668,-0.0373 -0.0441,0 -0.0279,0.0577 0.0237,0.0842 0.0421,0.0216 0.0358,0.0234 -0.0438,0.0116 -0.0774,-0.01 -0.093,-0.006 -0.093,0.0237 0,0.0201 -0.0116,0.0323 -0.0273,0.0268 -0.0149,-0.005 -0.0249,-0.0307 -0.0221,-0.0565 0.003,-0.0304 -0.006,-0.0468 -0.0298,-0.0468 -0.0222,0 -0.0303,0.0116 -0.0223,0.0328 0.009,0.0225 -10e-4,0.0328 -0.0318,0.0328 -0.0292,0 -0.0431,0.0133 -0.0404,0.0383 0.009,0.0835 -7e-4,0.0982 -0.055,0.0877 -0.0657,-0.0133 -0.0789,0.0176 -0.0441,0.10116 0.0228,0.0543 0.0208,0.0687 -0.0149,0.10396 -0.0225,0.0225 -0.0613,0.0407 -0.0863,0.0407 -0.0391,0 -0.0444,0.0116 -0.0386,0.082 0.009,0.0915 0.0116,0.0903 -0.24718,0.0627 -0.098,-0.01 -0.10202,-0.009 -0.11431,0.0535 -0.01,0.0511 -0.0245,0.0642 -0.0692,0.0642 -0.031,0 -0.0972,0.0197 -0.14692,0.0438 -0.0499,0.0241 -0.10782,0.0438 -0.12894,0.0438 -0.021,0 -0.0444,0.01 -0.0519,0.0218 -0.009,0.0116 -0.0371,0.0218 -0.0656,0.0218 -0.0286,0 -0.0576,0.009 -0.0642,0.0195 -0.0133,0.0216 -0.14358,0.0469 -0.23609,0.0461 -0.0479,-5.1e-4 -0.0568,0.006 -0.0451,0.0381 0.0116,0.0318 0.009,0.034 -0.0176,0.0133 -0.0189,-0.0149 -0.0444,-0.0186 -0.0617,-0.009 -0.0234,0.0149 -0.02,0.0267 0.0171,0.0583 0.0587,0.0502 0.0602,0.10914 0.003,0.12411 -0.0241,0.006 -0.0437,0.0267 -0.0437,0.0451 0,0.041 -0.083,0.13194 -0.13911,0.15274 -0.0304,0.0116 -0.0373,0.0285 -0.027,0.0696 0.009,0.03 0.005,0.0544 -0.003,0.0542 -0.0301,-5e-4 -0.20482,-0.0656 -0.28687,-0.10654 -0.0441,-0.0219 -0.10798,-0.0468 -0.14226,-0.055 -0.0343,-0.009 -0.11231,-0.0391 -0.1735,-0.0687 -0.10235,-0.0495 -0.11547,-0.0511 -0.16205,-0.0204 -0.028,0.0183 -0.0507,0.0474 -0.0507,0.0647 0,0.0261 -0.0859,0.0927 -0.10385,0.0805 -0.03,-0.0201 -0.0472,0.009 -0.0398,0.0674 0.0116,0.0893 -0.0319,0.15441 -0.0887,0.13278 -0.0227,-0.009 -0.0705,-0.0431 -0.10664,-0.0769 -0.07,-0.0654 -0.17127,-0.09 -0.12096,-0.0295 0.0149,0.0176 0.0435,0.0374 0.0647,0.0441 0.0614,0.0195 0.0502,0.13345 -0.0167,0.16372 -0.0298,0.0133 -0.0732,0.0489 -0.0965,0.0784 -0.0403,0.0513 -0.12661,0.075 -0.12661,0.0347 0,-0.01 -0.0319,-0.0252 -0.0711,-0.0325 -0.0391,-0.009 -0.14908,-0.037 -0.24425,-0.0656 -0.25356,-0.0762 -0.31481,-0.0468 -0.18395,0.0882 l 0.0696,0.0717 -0.0679,-0.0195 c -0.0374,-0.01 -0.0726,-0.0149 -0.0784,-0.009 -0.005,0.006 -0.0778,0.0171 -0.16023,0.0253 -0.13328,0.0133 -0.15041,0.0201 -0.15673,0.0641 -0.009,0.0583 -0.0388,0.0613 -0.1554,0.0149 -0.0476,-0.0191 -0.10385,-0.0314 -0.12463,-0.0273 -0.0359,0.006 -0.0359,0.01 3.5e-4,0.0456 0.021,0.021 0.0295,0.0383 0.0185,0.0383 -0.0116,0 -0.0267,-0.006 -0.0349,-0.0149 -0.009,-0.009 -0.0273,-0.0168 -0.0419,-0.0186 -0.20506,-0.0267 -0.27832,-0.0292 -0.27832,-0.01 0,0.0116 -0.0246,0.0221 -0.0547,0.0221 -0.0394,0 -0.0547,0.0116 -0.0547,0.0425 0,0.0233 -0.009,0.0481 -0.0201,0.0549 -0.0116,0.006 -0.0267,0.0413 -0.0343,0.0765 -0.0116,0.0524 -0.0268,0.0654 -0.0836,0.0708 -0.0574,0.005 -0.0709,0.0171 -0.0765,0.0659 -0.005,0.037 -0.0238,0.0646 -0.0525,0.0735 -0.0576,0.0183 -0.1705,0.13245 -0.1705,0.17231 0,0.0189 -0.0149,0.0259 -0.0422,0.0189 -0.0341,-0.009 -0.0468,0.005 -0.0653,0.0739 -0.0133,0.0468 -0.0374,0.10428 -0.0556,0.12794 -0.0179,0.0237 -0.0328,0.0705 -0.0333,0.10396 -10e-4,0.14109 -0.19453,0.42991 -0.35834,0.5364 -0.0499,0.0325 -0.094,0.066 -0.0978,0.0748 -0.003,0.009 -0.0608,0.0464 -0.12612,0.0838 -0.11264,0.0644 -0.47187,0.43937 -0.92429,0.96468 -0.0762,0.0885 -0.18597,0.21509 -0.24384,0.28126 -0.19031,0.2176 -0.25598,0.31833 -0.30351,0.46551 -0.0609,0.18858 -0.0599,0.24696 0.005,0.28948 0.11397,0.0747 0.88443,0.12761 1.06583,0.0732 0.0701,-0.021 0.0927,-0.0191 0.13926,0.0116 0.0306,0.0201 0.0927,0.0353 0.13777,0.0338 0.16455,-0.005 0.44851,0.0253 0.5052,0.055 0.0319,0.0168 0.0908,0.0628 0.13094,0.10235 0.0732,0.0722 0.16877,0.23358 0.14957,0.25273 -0.0149,0.0149 -0.19355,-0.0355 -0.24889,-0.0708 -0.0586,-0.0374 -0.26568,-0.0441 -0.40025,-0.0133 -0.0541,0.0133 -0.1336,0.0285 -0.17667,0.0353 -0.0429,0.006 -0.0981,0.031 -0.12246,0.0535 -0.0659,0.0614 -0.78449,0.096 -1.13858,0.0547 -0.49274,-0.0572 -1.07973,-0.0807 -1.67989,-0.0669 -0.91022,0.021 -1.47419,0.0869 -2.35311,0.27461 -0.16388,0.0349 -0.30616,0.0459 -0.65808,0.0507 l -0.44906,0.006 -0.10428,-0.0875 c -0.17988,-0.15091 -0.17589,-0.14941 -0.42867,-0.15989 -0.23511,-0.01 -0.23843,-0.009 -0.34849,0.0586 -0.0611,0.0376 -0.12479,0.0684 -0.14127,0.0684 -0.0167,0 -0.0534,0.0252 -0.0817,0.0558 -0.0784,0.0847 -0.16571,0.12413 -0.23907,0.10815 -0.0353,-0.009 -0.0641,-0.028 -0.0641,-0.0447 0,-0.0168 -0.0263,-0.0373 -0.0586,-0.0453 -0.0662,-0.0167 -0.36872,0.0271 -0.49667,0.0717 -0.10148,0.0355 -0.1668,0.0381 -0.1668,0.006 z m 10.13508,-4.60783 c -0.0149,-0.006 -0.0396,-0.006 -0.0547,0 -0.0149,0.006 -0.002,0.0116 0.0273,0.0116 0.0301,0 0.0425,-0.005 0.0273,-0.0116 z m -9.074,-1.14505 c -0.009,-0.0116 -0.0234,-0.0218 -0.0355,-0.0218 -0.0116,0 -0.0149,0.01 -0.009,0.0218 0.009,0.0116 0.0234,0.0218 0.0355,0.0218 0.0116,0 0.0149,-0.01 0.009,-0.0218 z m 14.18803,-12.48152 c -0.0298,-0.036 -0.10932,-0.045 -0.10932,-0.0125 0,0.0175 0.0318,0.0289 0.11747,0.0423 0.01,0.002 0.006,-0.0118 -0.009,-0.0298 z m 3.56615,10.97261 c 0,-0.0116 0.0149,-0.0149 0.0328,-0.009 0.0179,0.006 0.0328,0.0167 0.0328,0.0212 0,0.005 -0.0149,0.009 -0.0328,0.009 -0.0179,0 -0.0328,-0.01 -0.0328,-0.0211 z"
                id="path2161" class="fragment" data-fragment-index="15" />
        <g
                transform="translate(-280.49672,701.1984)"
                id="g4176" class="fragment" data-fragment-index="1">
            <circle
                    r="39.111671"
                    cy="246.17041"
                    cx="623.85724"
                    id="circle4146"
                    style="opacity:1;fill:#729fcf;fill-opacity:1;stroke:#204a87;stroke-width:1;stroke-linecap:butt;stroke-linejoin:round;stroke-miterlimit:4;stroke-dasharray:none;stroke-dashoffset:0;stroke-opacity:1" />
            <text
         id="text4167"
         y="254.02917"
         x="605.08606"
         style="font-style:normal;font-weight:normal;font-size:24.40612221px;line-height:125%;font-family:sans-serif;letter-spacing:0px;word-spacing:0px;fill:#000000;fill-opacity:1;stroke:none;stroke-width:1px;stroke-linecap:butt;stroke-linejoin:miter;stroke-opacity:1"
         xml:space="preserve"><tspan
           style="font-style:normal;font-variant:normal;font-weight:normal;font-stretch:normal;font-family:'Source Sans Pro';-inkscape-font-specification:'Source Sans Pro'"
           y="254.02917"
           x="605.08606"
           id="tspan4169">Bob</tspan></text>
        </g>
        <g
                transform="translate(-431.09682,628.84047)"
                id="g4776" class="fragment" data-fragment-index="3">
            <rect
                    style="opacity:1;fill:#4e9a06;fill-opacity:1;stroke:#000000;stroke-width:1;stroke-linecap:butt;stroke-linejoin:round;stroke-miterlimit:4;stroke-dasharray:none;stroke-dashoffset:0;stroke-opacity:1"
                    id="rect4778"
                    width="72.779968"
                    height="46.167904"
                    x="445.89789"
                    y="156.01947" />
            <text
         id="text4780"
         y="177.07254"
         x="481.90302"
         style="font-style:normal;font-weight:normal;font-size:17.35793114px;line-height:88.99999857%;font-family:sans-serif;letter-spacing:0px;word-spacing:0px;fill:#000000;fill-opacity:1;stroke:none;stroke-width:1px;stroke-linecap:butt;stroke-linejoin:miter;stroke-opacity:1"
         xml:space="preserve"><tspan
           style="font-style:normal;font-variant:normal;font-weight:normal;font-stretch:normal;line-height:88.99999857%;font-family:'Source Sans Pro';-inkscape-font-specification:'Source Sans Pro';text-align:center;text-anchor:middle"
           y="177.07254"
           x="481.90302"
           id="tspan4782">Stun</tspan><tspan
           id="tspan4784"
           style="font-style:normal;font-variant:normal;font-weight:normal;font-stretch:normal;line-height:88.99999857%;font-family:'Source Sans Pro';-inkscape-font-specification:'Source Sans Pro';text-align:center;text-anchor:middle"
           y="192.5211"
           x="481.90302">Server</tspan></text>
        </g>
        <g
                transform="translate(-58.398368,765.52089)"
                id="g4885" class="fragment" data-fragment-index="2">
            <g
                    transform="matrix(0.27244499,-0.96217136,0.96217136,0.27244499,-203.75401,433.93997)"
                    id="g4752">
                <path
                        style="fill:none;fill-rule:evenodd;stroke:#ffffff;stroke-width:1px;stroke-linecap:butt;stroke-linejoin:miter;stroke-opacity:1"
                        d="m 355.63395,215.29181 c 0,0 37.7291,-27.50926 78.25106,-34.4429"
                        id="path4754" />
                <path
                        style="opacity:1;fill:#ffffff;fill-opacity:1;stroke:none;stroke-width:1;stroke-linecap:butt;stroke-linejoin:round;stroke-miterlimit:4;stroke-dasharray:none;stroke-dashoffset:0;stroke-opacity:1"
                        d="m 359.64825,207.14051 1.16169,1.62663 0.74989,-0.0723 4.83729,-0.46802 -2.01307,4.42342 -0.31223,0.68587 1.22382,1.71436 2.0132,-4.4225 2.01306,-4.42341 -4.83728,0.46803 -4.83637,0.46792 z"
                        id="path4756" />
            </g>
            <g
                    id="g4811"
                    transform="translate(-3.4213766,-11.689704)">
                <circle
                        r="8.9098358"
                        cy="116.75825"
                        cx="92.947403"
                        id="path4786"
                        style="opacity:1;fill:#fcaf3e;fill-opacity:1;stroke:#ce5c00;stroke-width:1;stroke-linecap:butt;stroke-linejoin:round;stroke-miterlimit:4;stroke-dasharray:none;stroke-dashoffset:0;stroke-opacity:1" />
                <text
           id="text4780-0"
           y="122.56803"
           x="93.132774"
           style="font-style:normal;font-weight:normal;font-size:17.35793114px;line-height:88.99999857%;font-family:sans-serif;letter-spacing:0px;word-spacing:0px;fill:#000000;fill-opacity:1;stroke:none;stroke-width:1px;stroke-linecap:butt;stroke-linejoin:miter;stroke-opacity:1"
           xml:space="preserve"><tspan
             id="tspan4784-4"
             style="font-style:normal;font-variant:normal;font-weight:normal;font-stretch:normal;line-height:88.99999857%;font-family:'Source Sans Pro';-inkscape-font-specification:'Source Sans Pro';text-align:center;text-anchor:middle"
             y="122.56803"
             x="93.132774">?</tspan></text>
            </g>
        </g>
        <g
                transform="translate(-58.398368,765.52089)"
                id="g4874" class="fragment" data-fragment-index="4">
            <g
                    id="g4824"
                    transform="matrix(0.27244499,-0.96217136,0.96217136,0.27244499,-170.6807,433.93997)">
                <path
                        id="path4826"
                        d="m 355.63395,215.29181 c 0,0 37.7291,-27.50926 78.25106,-34.4429"
                        style="fill:none;fill-rule:evenodd;stroke:#ffffff;stroke-width:1px;stroke-linecap:butt;stroke-linejoin:miter;stroke-opacity:1" />
                <path
                        id="path4828"
                        d="m 376.68225,208.05595 -0.94035,-1.76386 -0.75293,-0.0258 -4.85708,-0.16485 2.57108,-4.12416 0.39875,-0.63945 -0.99055,-1.85892 -2.57109,4.12322 -2.57106,4.12414 4.85707,0.16485 4.85616,0.16483 z"
                        style="opacity:1;fill:#ffffff;fill-opacity:1;stroke:none;stroke-width:1;stroke-linecap:butt;stroke-linejoin:round;stroke-miterlimit:4;stroke-dasharray:none;stroke-dashoffset:0;stroke-opacity:1" />
            </g>
            <g
                    id="g4816"
                    transform="matrix(1.9038461,0,0,1.9038461,-47.871859,-121.85431)">
                <circle
                        style="opacity:1;fill:#4e9a06;fill-opacity:1;stroke:#000000;stroke-width:0.52525252;stroke-linecap:butt;stroke-linejoin:round;stroke-miterlimit:4;stroke-dasharray:none;stroke-dashoffset:0;stroke-opacity:1"
                        id="circle4818"
                        cx="89.929413"
                        cy="116.5994"
                        r="8.9486399" />
            </g>
            <g
                    id="g4838"
                    transform="translate(-50.607863,10.976917)">
                <path
                        style="color:#ffffff;font-style:normal;font-variant:normal;font-weight:normal;font-stretch:normal;font-size:medium;line-height:normal;font-family:sans-serif;text-indent:0;text-align:start;text-decoration:none;text-decoration-line:none;text-decoration-style:solid;text-decoration-color:#ffffff;letter-spacing:normal;word-spacing:normal;text-transform:none;direction:ltr;block-progression:tb;writing-mode:lr-tb;baseline-shift:baseline;text-anchor:start;white-space:normal;clip-rule:nonzero;display:inline;overflow:visible;visibility:visible;opacity:1;isolation:auto;mix-blend-mode:normal;color-interpolation:sRGB;color-interpolation-filters:linearRGB;solid-color:#ffffff;solid-opacity:1;fill:#000000;fill-opacity:1;fill-rule:evenodd;stroke:none;stroke-width:1px;stroke-linecap:butt;stroke-linejoin:miter;stroke-miterlimit:4;stroke-dasharray:none;stroke-dashoffset:0;stroke-opacity:1;color-rendering:auto;image-rendering:auto;shape-rendering:auto;text-rendering:auto;enable-background:accumulate"
                        d="m 184.91406,85.673828 -19.18554,14.261719 0.59765,0.802733 18.91797,-14.064452 -0.16406,0 0,-1 -0.16602,0 z"
                        id="path4843" />
                <path
                        style="color:#ffffff;font-style:normal;font-variant:normal;font-weight:normal;font-stretch:normal;font-size:medium;line-height:normal;font-family:sans-serif;text-indent:0;text-align:start;text-decoration:none;text-decoration-line:none;text-decoration-style:solid;text-decoration-color:#ffffff;letter-spacing:normal;word-spacing:normal;text-transform:none;direction:ltr;block-progression:tb;writing-mode:lr-tb;baseline-shift:baseline;text-anchor:start;white-space:normal;clip-rule:nonzero;display:inline;overflow:visible;visibility:visible;opacity:1;isolation:auto;mix-blend-mode:normal;color-interpolation:sRGB;color-interpolation-filters:linearRGB;solid-color:#ffffff;solid-opacity:1;fill:#000000;fill-opacity:1;fill-rule:evenodd;stroke:none;stroke-width:1px;stroke-linecap:butt;stroke-linejoin:miter;stroke-miterlimit:4;stroke-dasharray:none;stroke-dashoffset:0;stroke-opacity:1;color-rendering:auto;image-rendering:auto;shape-rendering:auto;text-rendering:auto;enable-background:accumulate"
                        d="m 160.92578,88.685547 -0.38086,0.923828 24.5957,10.181641 0.38282,-0.923828 -24.59766,-10.181641 z"
                        id="path4845" />
                <path
                        style="opacity:1;fill:#ffffff;fill-opacity:1;stroke:#ffffff;stroke-width:1;stroke-linecap:butt;stroke-linejoin:round;stroke-miterlimit:4;stroke-dasharray:none;stroke-dashoffset:0;stroke-opacity:1"
                        d="m 173.916,74.976973 a 6.4208005,6.4514925 0 0 0 -6.42016,6.452432 6.4208005,6.4514925 0 0 0 0.6849,2.897912 l -0.0455,0 2.88412,5.001896 2.8857,5.001907 2.88413,-5.001907 2.88413,-5.001896 -0.0283,0 a 6.4208005,6.4514925 0 0 0 0.69275,-2.897912 6.4208005,6.4514925 0 0 0 -6.42174,-6.452432 z m 0,3.341438 a 3.0957431,3.110541 0 0 1 3.0962,3.110994 3.0957431,3.110541 0 0 1 -3.0962,3.110994 3.0957431,3.110541 0 0 1 -3.09619,-3.110994 3.0957431,3.110541 0 0 1 3.09619,-3.110994 z"
                        id="path4830" />
            </g>
        </g>
        <g
                transform="translate(-267.5939,699.81996)"
                id="g4171">
            <circle
                    style="opacity:1;fill:#729fcf;fill-opacity:1;stroke:#204a87;stroke-width:1;stroke-linecap:butt;stroke-linejoin:round;stroke-miterlimit:4;stroke-dasharray:none;stroke-dashoffset:0;stroke-opacity:1"
                    id="path4136"
                    cx="331.84436"
                    cy="247.54884"
                    r="39.111671" />
            <text
         xml:space="preserve"
         style="font-style:normal;font-weight:normal;font-size:24.40612221px;line-height:125%;font-family:sans-serif;letter-spacing:0px;word-spacing:0px;fill:#000000;fill-opacity:1;stroke:none;stroke-width:1px;stroke-linecap:butt;stroke-linejoin:miter;stroke-opacity:1"
         x="308.1525"
         y="256.09097"
         id="text4138"><tspan
           id="tspan4140"
           x="308.1525"
           y="256.09097"
           style="font-style:normal;font-variant:normal;font-weight:normal;font-stretch:normal;font-family:'Source Sans Pro';-inkscape-font-specification:'Source Sans Pro'">Alice</tspan></text>
        </g>
    </g>
</svg>
